<?xml version="1.0" encoding="UTF-8" standalone="no"?>
<svg
   width="16"
   height="16"
   version="1.1"
   id="svg4687"
   sodipodi:docname="HUB3.svg"
   inkscape:version="1.2.2 (b0a8486541, 2022-12-01)"
   xmlns:inkscape="http://www.inkscape.org/namespaces/inkscape"
   xmlns:sodipodi="http://sodipodi.sourceforge.net/DTD/sodipodi-0.dtd"
   xmlns="http://www.w3.org/2000/svg"
   xmlns:svg="http://www.w3.org/2000/svg">
  <defs
     id="defs4691" />
  <sodipodi:namedview
     id="namedview4689"
     pagecolor="#ffffff"
     bordercolor="#000000"
     borderopacity="0.25"
     inkscape:showpageshadow="2"
     inkscape:pageopacity="0.0"
     inkscape:pagecheckerboard="0"
     inkscape:deskcolor="#d1d1d1"
     showgrid="true"
     inkscape:zoom="32"
     inkscape:cx="9.75"
     inkscape:cy="6.78125"
     inkscape:window-width="1920"
     inkscape:window-height="1011"
     inkscape:window-x="1920"
     inkscape:window-y="32"
     inkscape:window-maximized="1"
     inkscape:current-layer="svg4687">
    <inkscape:grid
       type="xygrid"
       id="grid5056" />
  </sodipodi:namedview>
  <path
     id="path9585"
     style="fill:#c38ef1;fill-opacity:1;stroke:none;stroke-width:2;stroke-linecap:round;stroke-linejoin:round;stroke-dasharray:none;stroke-opacity:1"
     d="M 8 3 A 1 1 0 0 0 7 4 A 1 1 0 0 0 7.5 4.8632812 L 7.5 8 L 3 8 C 2.9827412 8 2.9663726 7.9995654 2.9492188 8 C 1.8685127 8.0273801 1 8.9126959 1 10 L 1 13 C 1 14.104563 1.8954371 15 3 15 L 13 15 C 14.104563 15 15 14.104563 15 13 L 15 10 C 15 8.8954371 14.104563 8 13 8 L 8.5 8 L 8.5 4.8632812 A 1 1 0 0 0 9 4 A 1 1 0 0 0 8 3 z M 4 9.3339844 L 5.3339844 9.3339844 L 5.3339844 10.666016 L 6.6660156 10.666016 L 6.6660156 12 L 5.3339844 12 L 5.3339844 13.333984 L 4 13.333984 L 4 12 L 2.6660156 12 L 2.6660156 10.666016 L 4 10.666016 L 4 9.3339844 z M 11.666016 9.3339844 A 0.66666665 0.66666665 0 0 1 12.333984 10 A 0.66666665 0.66666665 0 0 1 11.666016 10.666016 A 0.66666665 0.66666665 0 0 1 11 10 A 0.66666665 0.66666665 0 0 1 11.666016 9.3339844 z M 10.333984 10.666016 A 0.66666665 0.66666665 0 0 1 11 11.333984 A 0.66666665 0.66666665 0 0 1 10.333984 12 A 0.66666665 0.66666665 0 0 1 9.6660156 11.333984 A 0.66666665 0.66666665 0 0 1 10.333984 10.666016 z M 13 10.666016 A 0.66666665 0.66666665 0 0 1 13.666016 11.333984 A 0.66666665 0.66666665 0 0 1 13 12 A 0.66666665 0.66666665 0 0 1 12.333984 11.333984 A 0.66666665 0.66666665 0 0 1 13 10.666016 z M 11.666016 12 A 0.66666665 0.66666665 0 0 1 12.333984 12.666016 A 0.66666665 0.66666665 0 0 1 11.666016 13.333984 A 0.66666665 0.66666665 0 0 1 11 12.666016 A 0.66666665 0.66666665 0 0 1 11.666016 12 z " />
  <g
     id="g9707"
     style="fill:#f9f9f9;fill-opacity:1">
    <path
       id="path9683"
       style="fill:#f9f9f9;fill-opacity:1;stroke:none;stroke-width:2;stroke-linecap:round;stroke-linejoin:round;stroke-dasharray:none;stroke-opacity:1"
       d="M 10.757812 2.8183594 L 9.8378906 3.2128906 A 2 2 0 0 1 10 4 A 2 2 0 0 1 9.7324219 4.9902344 L 10.603516 5.4882812 A 3 3 0 0 0 11 4 A 3 3 0 0 0 10.757812 2.8183594 z M 5.2460938 2.8203125 A 3 3 0 0 0 5 4 A 3 3 0 0 0 5.3964844 5.4882812 L 6.2675781 4.9902344 A 2 2 0 0 1 6 4 A 2 2 0 0 1 6.1679688 3.2148438 L 5.2460938 2.8203125 z " />
    <path
       id="path9687"
       style="fill:#f9f9f9;fill-opacity:1;stroke:none;stroke-width:2;stroke-linecap:round;stroke-linejoin:round;stroke-dasharray:none;stroke-opacity:1"
       d="M 12.59375 2.03125 L 11.675781 2.4238281 A 4 4 0 0 1 12 4 A 4 4 0 0 1 11.464844 5.9804688 L 12.339844 6.4804688 A 5 5 0 0 0 13 4 A 5 5 0 0 0 12.59375 2.03125 z M 3.4101562 2.0332031 A 5 5 0 0 0 3 4 A 5 5 0 0 0 3.6601562 6.4804688 L 4.5351562 5.9804688 A 4 4 0 0 1 4 4 A 4 4 0 0 1 4.3339844 2.4296875 L 3.4101562 2.0332031 z " />
    <path
       id="path9691"
       style="fill:#f9f9f9;fill-opacity:1;stroke:none;stroke-width:2;stroke-linecap:round;stroke-linejoin:round;stroke-dasharray:none;stroke-opacity:1"
       d="M 14.431641 1.2441406 L 13.513672 1.6367188 A 6 6 0 0 1 14 4 A 6 6 0 0 1 13.197266 6.96875 L 14.076172 7.4726562 A 7 7 0 0 0 15 4 A 7 7 0 0 0 14.431641 1.2441406 z M 1.5742188 1.2460938 A 7 7 0 0 0 1 4 A 7 7 0 0 0 1.9238281 7.4726562 L 2.8027344 6.96875 A 6 6 0 0 1 2 4 A 6 6 0 0 1 2.5019531 1.6425781 L 1.5742188 1.2460938 z " />
  </g>
</svg>
